<svg width="143" height="151" viewBox="0 0 143 151" fill="none" xmlns="http://www.w3.org/2000/svg">
<g clip-path="url(#clip0_21058_781)">
<path d="M126.173 55.9234L56.7817 124.258C53.6465 127.346 48.5624 127.346 45.426 124.258L4.59279 84.0458C1.45645 80.9572 1.45645 75.9504 4.59279 72.863L73.983 4.52751C77.1193 1.44005 82.2034 1.44005 85.3386 4.52751L126.173 44.7406C129.308 47.828 129.308 52.8348 126.173 55.9234Z" fill="#8CBAFA"/>
<path d="M126.173 44.7406L121.076 39.7212C123.868 42.4711 123.59 47.2037 120.455 50.2923L51.0635 118.627C47.9283 121.715 43.1226 121.989 40.3302 119.239L45.426 124.258C48.5624 127.346 53.6465 127.346 56.7817 124.258L126.173 55.9235C129.308 52.8348 129.308 47.8281 126.173 44.7406Z" fill="#5692D8"/>
<path d="M72.8494 20.1032L66.0503 26.7989C63.376 29.4313 63.376 33.6984 66.0503 36.3308C68.7234 38.9632 73.0565 38.9632 75.7295 36.3308L82.5287 29.6352C85.2017 27.0028 85.2017 22.7356 82.5287 20.1032C79.8556 17.4708 75.5225 17.4708 72.8494 20.1032Z" fill="#FFB600"/>
<path d="M132.725 76.105H34.5922C30.1573 76.105 26.5624 79.6452 26.5624 84.0114V140.881C26.5624 145.248 30.1573 148.788 34.5922 148.788H132.725C137.159 148.788 140.754 145.248 140.754 140.881V84.0114C140.754 79.6452 137.159 76.105 132.725 76.105Z" fill="#FFB600"/>
<path d="M132.725 76.105H125.538C129.971 76.105 133.566 79.6452 133.566 84.0114V140.881C133.566 145.248 129.971 148.788 125.538 148.788H132.725C137.159 148.788 140.754 145.248 140.754 140.881V84.0114C140.754 79.6452 137.159 76.105 132.725 76.105Z" fill="#FFB600"/>
<path d="M26.5624 93.9695H140.754V107.632H26.5624V93.9695Z" fill="#575B7A"/>
<path d="M133.566 93.9695H140.754V107.632H133.566V93.9695Z" fill="#252D4C"/>
<path d="M112.688 129.461V137.887C112.688 138.54 113.224 139.067 113.886 139.067H127.496C128.158 139.067 128.694 138.54 128.694 137.887V129.461C128.694 128.809 128.158 128.282 127.496 128.282H113.886C113.224 128.282 112.688 128.809 112.688 129.461Z" fill="#E9E9EA"/>
<path d="M71.6538 129.461V137.887C71.6538 138.54 72.1908 139.067 72.8517 139.067H101.638C102.3 139.067 102.836 138.54 102.836 137.887V129.461C102.836 128.809 102.3 128.282 101.638 128.282H72.8517C72.1908 128.282 71.6538 128.809 71.6538 129.461Z" fill="#E9E9EA"/>
<path d="M6.18143 82.4823C3.92598 80.2612 3.92598 76.6472 6.18143 74.4272L61.2212 20.225C62.0986 19.3609 62.0986 17.9601 61.2212 17.0972C60.3438 16.232 58.9213 16.2332 58.0451 17.0972L3.00415 71.2995C-1.00138 75.244 -1.00138 81.6643 3.00415 85.6101L16.8679 99.2617C17.3054 99.6926 17.881 99.9092 18.4554 99.9092C19.0309 99.9092 19.6053 99.6937 20.044 99.2617C20.9214 98.3977 20.9214 96.9968 20.044 96.1339L6.18143 82.4823Z" fill="black"/>
<path d="M50.3359 44.0505L16.3473 77.5218C15.47 78.3858 15.47 79.7867 16.3473 80.6507C16.786 81.0816 17.3604 81.2982 17.936 81.2982C18.5104 81.2982 19.0848 81.0828 19.5234 80.6507L53.512 47.1794C54.3894 46.3154 54.3894 44.9145 53.512 44.0505C52.6358 43.1876 51.2132 43.1876 50.3359 44.0505Z" fill="black"/>
<path d="M70.8899 40.5139C73.2179 40.5139 75.5459 39.6418 77.3182 37.8964L84.1173 31.2008C87.6619 27.7101 87.6619 22.0306 84.1173 18.5399C80.5727 15.0492 74.8054 15.0492 71.2608 18.5399L64.4617 25.2355C62.7443 26.9267 61.7991 29.1744 61.7991 31.566C61.7991 33.9565 62.7443 36.2052 64.4617 37.8964C66.234 39.6418 68.5619 40.5139 70.8899 40.5139ZM67.6378 28.3633L74.4369 21.6677C76.2302 19.9016 79.1478 19.9016 80.94 21.6677C82.7334 23.4337 82.7334 26.3069 80.94 28.0719L74.1409 34.7675C72.3487 36.5336 69.4311 36.5336 67.6378 34.7675C66.7697 33.9127 66.2913 32.7756 66.2913 31.566C66.2913 30.3563 66.7697 29.2181 67.6378 28.3633Z" fill="black"/>
<path d="M132.724 73.8929H111.103L127.762 57.4879C131.768 53.5421 131.768 47.1218 127.762 43.1761L86.9273 2.9642C84.9865 1.05296 82.4058 0 79.6614 0C76.9169 0 74.3363 1.05296 72.3943 2.9642L64.3926 10.8441C63.5164 11.7082 63.5164 13.1079 64.3926 13.9719C65.27 14.836 66.6925 14.836 67.5688 13.9719L75.5716 6.09198C76.6631 5.01598 78.116 4.42383 79.6614 4.42383C81.2056 4.42383 82.6585 5.01598 83.7511 6.09198L124.584 46.3039C126.84 48.525 126.84 52.1378 124.584 54.3589L104.75 73.8918H47.988L64.3143 57.8139C65.1916 56.951 65.1916 55.5501 64.3143 54.6861C63.4369 53.8221 62.0144 53.8221 61.1381 54.6861L41.6358 73.8929H34.5922C28.9255 73.8929 24.3163 78.4319 24.3163 84.0113V140.88C24.3163 146.46 28.9255 151 34.5922 151H132.724C138.391 151 143 146.46 143 140.88V132.706C143 131.483 141.995 130.494 140.754 130.494C139.514 130.494 138.508 131.483 138.508 132.706V140.88C138.508 144.021 135.914 146.576 132.724 146.576H34.5922C31.4032 146.576 28.8085 144.021 28.8085 140.88V109.843H138.508V123.858C138.508 125.079 139.513 126.07 140.754 126.07C141.995 126.07 143 125.079 143 123.858V84.0124C143 78.4319 138.391 73.8929 132.724 73.8929ZM34.5922 78.3167H132.724C135.913 78.3167 138.508 80.872 138.508 84.0124V91.7587H28.8085V84.0124C28.8085 80.872 31.4032 78.3167 34.5922 78.3167ZM28.8085 105.42V96.1825H138.508V105.42H28.8085Z" fill="black"/>
<path d="M113.886 126.07C111.988 126.07 110.442 127.592 110.442 129.461V137.887C110.442 139.758 111.988 141.279 113.886 141.279H127.496C129.395 141.279 130.94 139.758 130.94 137.887V129.461C130.94 127.592 129.395 126.07 127.496 126.07H113.886ZM126.448 136.855H114.934V130.494H126.448V136.855Z" fill="black"/>
<path d="M72.8518 126.07C70.9531 126.07 69.4077 127.592 69.4077 129.461V137.887C69.4077 139.758 70.9531 141.279 72.8518 141.279H101.638C103.537 141.279 105.082 139.758 105.082 137.887V129.461C105.082 127.592 103.537 126.07 101.638 126.07H72.8518ZM100.59 136.855H73.8999V130.494H100.59V136.855Z" fill="black"/>
<path d="M45.5781 136.855C44.3381 136.855 43.332 137.846 43.332 139.067C43.332 140.29 44.3381 141.279 45.5781 141.279H59.9203C61.1604 141.279 62.1664 140.29 62.1664 139.067C62.1664 137.846 61.1604 136.855 59.9203 136.855H45.5781Z" fill="black"/>
</g>
<defs>
<clipPath id="clip0_21058_781">
<rect width="143" height="151" fill="white"/>
</clipPath>
</defs>
</svg>
