<svg width="124" height="151" viewBox="0 0 124 151" fill="none" xmlns="http://www.w3.org/2000/svg">
<g clip-path="url(#clip0_21058_799)">
<path d="M121.789 17.3553C121.748 22.5076 118.979 26.9992 114.868 29.4736C112.694 30.783 110.143 31.5262 107.42 31.5026C99.5505 31.4378 93.2218 24.9967 93.2866 17.1164C93.3073 14.5889 93.9849 12.2207 95.1546 10.171C97.6295 5.83273 102.311 2.92481 107.659 2.972C115.528 3.03688 121.857 9.475 121.789 17.3553Z" fill="#585E60"/>
<path d="M114.868 29.4722C112.694 30.7817 110.143 31.5249 107.42 31.5013C99.5505 31.4364 93.2218 24.9953 93.2867 17.1151C93.3073 14.5876 93.9849 12.2194 95.1546 10.1697C103.054 15.0775 109.798 21.6834 114.868 29.4722Z" fill="#414749"/>
<path d="M30.7127 16.5967C30.6479 24.474 24.2131 30.8089 16.3406 30.7441C13.8509 30.7234 11.5174 30.0657 9.49038 28.9273C5.1092 26.4618 2.16289 21.746 2.21003 16.3608C2.27485 8.48049 8.70666 2.1456 16.5792 2.21343C22.0682 2.25767 26.8088 5.40742 29.1512 9.98164C30.1676 11.9638 30.7333 14.2138 30.7127 16.5967Z" fill="#585E60"/>
<path d="M29.1511 9.98145C30.1676 11.9633 30.7333 14.2136 30.7127 16.5965C30.6479 24.4738 24.2131 30.8087 16.3406 30.7439C13.8509 30.7232 11.5174 30.0655 9.49036 28.9272C14.5845 21.2737 21.3051 14.7946 29.1511 9.98145Z" fill="#414749"/>
<path d="M120.64 63.845C120.64 93.3854 98.8375 117.83 70.4621 121.938C67.6981 122.336 64.8732 122.543 62 122.543C49.4828 122.543 37.8829 118.618 28.3607 111.929C13.2434 101.312 3.3597 83.7321 3.3597 63.845C3.3597 31.4285 29.6149 5.14722 62 5.14722C94.385 5.14722 120.64 31.4285 120.64 63.845Z" fill="#F9E8D4"/>
<path d="M79.452 108.712L70.4619 121.938C67.6979 122.336 64.873 122.543 61.9997 122.543C49.4826 122.543 37.8827 118.618 28.3605 111.929C26.6534 107.946 25.6269 104.291 25.0285 101.634C24.6183 99.8221 25.0467 97.9583 26.1949 96.5173C27.3431 95.0822 29.1168 94.2249 30.9456 94.2249C32.2304 94.2249 33.4635 94.6292 34.5115 95.3954C38.3812 98.2169 43.9182 102.987 48.3256 109.7C48.5018 109.971 48.6809 110.244 48.8601 110.521L68.8667 99.0085L79.452 108.712Z" fill="#EFCDB1"/>
<path d="M120.64 63.8449C120.64 96.2614 94.3847 122.542 61.9997 122.542C61.0003 122.542 60.0071 122.518 59.023 122.47C90.0227 120.913 114.683 95.2611 114.683 63.8449C114.683 32.4285 90.0227 6.7769 59.023 5.22031C60.0071 5.17164 61.0003 5.14746 61.9997 5.14746C94.3847 5.14717 120.64 31.4284 120.64 63.8449Z" fill="#EFCDB1"/>
<path d="M75.6833 52.5711C75.6833 52.5711 64.5544 56.4534 69.0093 70.7692C73.4641 85.0849 83.6313 94.9329 93.1081 90.0089C102.585 85.0849 100.335 65.4293 93.9546 56.7761C87.574 48.1228 75.6833 52.5711 75.6833 52.5711Z" fill="#585E60"/>
<path d="M48.3163 52.5711C48.3163 52.5711 59.4452 56.4534 54.9903 70.7692C50.5355 85.0849 40.3684 94.9329 30.8915 90.0089C21.4147 85.0849 23.6645 65.4293 30.0451 56.7761C36.4256 48.1228 48.3163 52.5711 48.3163 52.5711Z" fill="#585E60"/>
<path d="M62.0001 92.0835C65.474 92.0835 68.2902 89.2646 68.2902 85.7872C68.2902 82.3099 65.474 79.491 62.0001 79.491C58.5262 79.491 55.71 82.3099 55.71 85.7872C55.71 89.2646 58.5262 92.0835 62.0001 92.0835Z" fill="#8B5016"/>
<path d="M29.4723 100.63C29.1659 99.2697 30.7039 98.2596 31.83 99.0809C35.0904 101.458 40.3811 105.905 44.5186 112.205C45.0569 113.023 45.5716 113.838 46.0645 114.641C46.8432 115.911 47.5657 117.157 48.2268 118.366C49.2896 120.309 50.1897 122.156 50.9086 123.84L44.6126 127.983C42.7193 125.987 40.6486 123.46 38.5829 120.57C37.8791 119.584 37.1746 118.56 36.4781 117.496C35.8143 116.485 35.205 115.467 34.6478 114.45C31.7319 109.137 30.2172 103.937 29.4723 100.63Z" fill="#009655"/>
<path d="M38.5827 120.571L46.0643 114.642C46.843 115.912 47.5654 117.158 48.2266 118.367C49.2893 120.31 50.1894 122.157 50.9083 123.841L44.6123 127.984C42.7193 125.987 40.6484 123.461 38.5827 120.571Z" fill="#006B42"/>
<path d="M34.6475 114.45C37.4397 115.116 41.0581 116.135 48.2268 118.367C49.2895 120.309 50.1896 122.157 50.9085 123.84L44.6125 127.984C42.0725 125.307 39.2205 121.678 36.4777 117.497C35.8136 116.486 35.2046 115.468 34.6475 114.45Z" fill="#006B42"/>
<path d="M13.9134 119.065C12.5419 118.37 12.9679 116.309 14.5021 116.216C18.5279 115.971 24.6748 115.974 31.292 117.345C34.4083 117.989 37.339 118.723 39.9476 119.488C41.4394 119.925 42.8221 120.373 44.0766 120.822L42.8878 126.578C39.9609 126.391 36.4574 125.948 32.6644 125.26C31.7195 125.088 30.7528 124.899 29.7746 124.696C23.1566 123.326 17.5123 120.888 13.9134 119.065Z" fill="#00C37A"/>
<path d="M32.6644 125.26L39.9477 119.488C41.4395 119.925 42.8222 120.372 44.0767 120.822L42.8879 126.578C39.9613 126.391 36.4578 125.948 32.6644 125.26Z" fill="#009655"/>
<path d="M25.6975 135.312L71.1486 98.2131L79.4519 108.712L34.0008 145.81L25.6975 135.312Z" fill="#A4E869"/>
<path d="M25.6975 135.311L31.1986 130.952C31.3427 131.104 31.4823 131.265 31.6143 131.432L39.113 140.913C39.2509 141.088 39.3817 141.268 39.5001 141.452L34.0011 145.81L25.6975 135.311Z" fill="#60DC4D"/>
<path d="M71.1486 98.2131L73.541 101.238L28.0906 138.335L25.6984 135.311L71.1486 98.2131Z" fill="#60DC4D"/>
<path d="M28.8324 133.638L36.3299 143.117C37.5279 144.632 37.2724 146.832 35.7592 148.031C34.246 149.231 32.0477 148.975 30.8498 147.46L23.3523 137.981C22.1543 136.466 22.4097 134.265 23.923 133.066C25.4362 131.867 27.6344 132.123 28.8324 133.638Z" fill="#A4E869"/>
<path d="M77.771 94.6006C73.1176 94.6006 69.3451 98.3767 69.3451 103.035C69.3451 107.693 73.1176 111.469 77.771 111.469L83.0638 110.829V94.6006H77.771Z" fill="#F9E8D4"/>
<path d="M59.5289 7.41749C60.4213 7.37915 61.2295 7.36057 62 7.36057C90.7896 7.36057 114.897 28.9278 118.077 57.5278C118.202 58.6588 119.159 59.4955 120.27 59.4955C120.352 59.4955 120.434 59.4908 120.517 59.4816C121.73 59.3465 122.604 58.2527 122.469 57.0388C121.49 48.2304 118.606 39.8249 114.09 32.3525C119.97 29.7893 123.945 23.9251 123.999 17.3734C124.037 12.9714 122.36 8.81896 119.276 5.681C116.193 2.54334 112.074 0.795343 107.678 0.759068C100.883 0.705097 94.8049 4.83517 92.2911 11.0158C83.1434 5.75444 72.7267 2.93676 62 2.93676C61.1659 2.93676 60.2958 2.95652 59.3395 2.99781C58.1203 3.05031 57.1742 4.08223 57.2267 5.30232C57.2788 6.523 58.3071 7.47235 59.5289 7.41749ZM107.641 5.18288C110.857 5.20942 113.871 6.4879 116.125 8.78298C118.381 11.078 119.608 14.1154 119.58 17.336C119.538 22.3924 116.307 26.8899 111.614 28.5822C109.04 24.9594 106.061 21.5991 102.706 18.5743C100.618 16.6916 98.4159 14.9675 96.1172 13.407C97.7562 8.48865 102.39 5.13687 107.641 5.18288Z" fill="black"/>
<path d="M120.676 64.2895C119.445 64.2278 118.424 65.1804 118.37 66.4008C117.147 93.8854 96.0503 116.367 69.2918 119.857L76.9066 113.642C77.1921 113.665 77.4799 113.68 77.7713 113.68C78.992 113.68 79.981 112.69 79.981 111.468C79.981 110.246 78.992 109.256 77.7713 109.256C74.3439 109.256 71.5552 106.465 71.5552 103.034C71.5552 99.603 74.3439 96.8116 77.7713 96.8116C78.992 96.8116 79.981 95.8215 79.981 94.5997C79.981 93.3778 78.992 92.3877 77.7713 92.3877C74.0486 92.3877 70.7688 94.3136 68.8681 97.2206L64.21 101.022V94.0018C67.8287 93.0257 70.5001 89.7134 70.5001 85.7871C70.5001 81.0955 66.6873 77.2787 62.0003 77.2787C57.3133 77.2787 53.5004 81.0952 53.5004 85.7871C53.5004 89.7134 56.1719 93.0254 59.7905 94.0018V104.629L48.276 114.027C47.6605 113.008 47.0241 111.993 46.3662 110.991C42.145 104.564 36.839 99.9935 33.1299 97.2902C31.8653 96.3692 30.2048 96.3294 28.8996 97.1885C27.5949 98.047 26.9735 99.5888 27.3171 101.117C27.9008 103.708 28.8489 107.04 30.3565 110.629C14.916 100.189 5.57002 82.8185 5.57002 63.8444C5.57002 37.106 24.5366 13.8297 50.6684 8.49844C51.8643 8.25454 52.636 7.08635 52.3923 5.88927C52.1484 4.69219 50.9813 3.91891 49.7857 4.16369C43.5027 5.44542 37.4813 7.73341 31.946 10.8873C29.6426 4.51229 23.5322 0.0578045 16.5984 0C16.5495 0.000884762 16.5012 0.000589841 16.4525 0.000589841C12.1091 0.000589841 8.01723 1.67692 4.91712 4.72935C1.78283 7.81569 0.0365427 11.9396 0.000597581 16.3416C-0.0571502 23.2082 4.07536 29.2576 10.2824 31.7553C4.35437 41.3382 1.15055 52.4749 1.15055 63.8453C1.15055 75.2602 4.32461 86.3891 10.3295 96.0291C14.9532 103.452 21.1045 109.767 28.3303 114.58C22.8027 113.769 17.8123 113.8 14.3671 114.007C12.6692 114.111 11.2977 115.301 10.9541 116.968C10.6106 118.634 11.3993 120.27 12.9146 121.037C16.6043 122.908 22.4468 125.437 29.3277 126.863C30.2027 127.043 31.0698 127.209 31.9319 127.368L28.1226 130.477C27.6857 130.311 27.2278 130.192 26.7514 130.137C25.2379 129.962 23.7464 130.385 22.5517 131.332C21.357 132.279 20.6021 133.634 20.4262 135.149C20.2503 136.664 20.6743 138.157 21.6201 139.353L29.1179 148.833C30.0636 150.029 31.4181 150.785 32.9319 150.961C33.1561 150.987 33.3797 151 33.6019 151C34.8806 151 36.1139 150.573 37.1316 149.766C38.3263 148.819 39.0811 147.463 39.257 145.948C39.3177 145.426 39.3021 144.907 39.2235 144.401L63.3538 124.705C63.4596 124.72 63.5671 124.731 63.677 124.731C63.6979 124.731 63.7191 124.731 63.7404 124.73C79.1502 124.297 93.6932 118.088 104.69 107.248C115.675 96.4193 122.101 81.9829 122.785 66.5978C122.839 65.3771 121.895 64.3437 120.676 64.2895ZM57.9193 85.788C57.9193 83.5357 59.7499 81.7034 61.9997 81.7034C64.2495 81.7034 66.08 83.5357 66.08 85.788C66.08 88.04 64.2495 89.8724 61.9997 89.8724C59.7499 89.8721 57.9193 88.04 57.9193 85.788ZM4.41978 16.3784C4.4463 13.1579 5.72382 10.1408 8.01664 7.88294C10.3095 5.62502 13.3403 4.39255 16.5613 4.4247C21.9566 4.46923 26.6701 8.15043 28.0758 13.2906C23.2247 16.5551 18.827 20.5194 15.0613 25.083C14.2849 26.0238 13.541 26.9876 12.8259 27.9703C7.79773 26.3892 4.375 21.723 4.41978 16.3784ZM71.9788 111.956L37.0511 140.465L31.4911 133.435L67.2108 104.281C67.5871 107.492 69.3955 110.27 71.9788 111.956ZM42.6727 113.421C43.4155 114.553 44.1308 115.702 44.815 116.853L40.925 120.027C40.0431 118.823 39.1713 117.573 38.3225 116.283C34.9386 111.127 33.0686 105.684 32.101 102.063C35.037 104.387 39.2841 108.262 42.6727 113.421ZM30.221 122.531C25.2252 121.495 20.8051 119.829 17.4643 118.315C21.1398 118.257 25.8613 118.48 30.8453 119.51C32.5774 119.869 34.2966 120.268 35.9728 120.695C36.4754 121.42 36.9831 122.132 37.4948 122.827L36.4925 123.645C34.4634 123.343 32.3612 122.972 30.221 122.531ZM34.8664 145.437C34.827 145.778 34.657 146.084 34.3877 146.297C34.1187 146.511 33.7825 146.607 33.4416 146.566C33.1007 146.527 32.7955 146.357 32.5825 146.087L25.0847 136.607C24.8716 136.338 24.7762 136.002 24.8157 135.66C24.8554 135.319 25.0254 135.014 25.2944 134.8C25.5237 134.618 25.8015 134.522 26.0897 134.522C26.1397 134.522 26.1901 134.525 26.2405 134.531C26.5814 134.571 26.8866 134.741 27.0996 135.01L34.5974 144.49C34.8108 144.759 34.9062 145.096 34.8664 145.437Z" fill="black"/>
<path d="M66.8994 71.4268C70.1186 81.7708 76.0271 89.6104 82.7052 92.3974C84.4704 93.1341 86.257 93.5019 88.0245 93.5016C90.1079 93.5016 92.1647 92.9908 94.126 91.9715C97.5397 90.1979 99.9226 86.7665 101.017 82.0475C102.938 73.7643 100.617 62.0866 95.7324 55.4621C88.4461 45.5796 75.4588 50.2936 74.9093 50.4989L74.9096 50.4992C74.0578 50.8242 62.0194 55.7444 66.8994 71.4268ZM72.2809 57.8356C74.0675 55.5323 76.401 54.6632 76.4243 54.6546C76.4334 54.6511 76.4437 54.6478 76.4517 54.6449C76.875 54.4889 86.881 50.9071 92.1768 58.0896C96.3125 63.699 98.3469 73.9973 96.712 81.0471C96.159 83.4315 94.9083 86.5816 92.0901 88.0456C89.6285 89.3246 87.0428 89.4155 84.4061 88.3145C79.0026 86.0596 73.9113 79.0844 71.1188 70.1111C69.5308 65.0066 69.9214 60.8766 72.2809 57.8356Z" fill="black"/>
<path d="M49.0901 50.4993C48.5406 50.2937 35.5535 45.58 28.267 55.4625C26.6277 57.6859 25.2087 60.5991 24.1637 63.8869C23.7936 65.0509 24.4365 66.2949 25.5994 66.6653C26.762 67.0358 28.0051 66.3919 28.3751 65.2285C29.2752 62.3964 30.4676 59.9279 31.8232 58.0896C37.1186 50.9074 47.1249 54.4889 47.543 54.6429C47.5583 54.6488 47.5736 54.6541 47.5893 54.6597C47.9614 54.7895 56.6563 57.9776 52.8805 70.1115C50.088 79.0847 44.9968 86.0596 39.5932 88.3152C36.9566 89.4152 34.3712 89.3253 31.9095 88.0462C28.2982 86.1696 26.3775 80.8808 26.7718 73.8989C26.8404 72.6794 25.9085 71.6347 24.6902 71.5657C23.4695 71.497 22.428 72.4296 22.359 73.6493C21.8564 82.5512 24.5953 89.2297 29.8733 91.9722C31.835 92.9914 33.8909 93.5022 35.9746 93.5022C37.7418 93.5022 39.529 93.1345 41.2939 92.398C47.972 89.6107 53.8808 81.7712 57.0997 71.4271C61.9803 55.7444 49.9416 50.8243 49.0901 50.4993Z" fill="black"/>
<path d="M74.8582 72.6586C76.0789 72.6586 77.068 71.6685 77.068 70.4467V70.26C77.068 69.0381 76.0789 68.0481 74.8582 68.0481C73.6376 68.0481 72.6485 69.0381 72.6485 70.26V70.4467C72.6485 71.6685 73.6376 72.6586 74.8582 72.6586Z" fill="black"/>
<path d="M51.3511 70.4467V70.26C51.3511 69.0381 50.3617 68.0481 49.1414 68.0481C47.921 68.0481 46.9316 69.0381 46.9316 70.26V70.4467C46.9316 71.6685 47.921 72.6586 49.1414 72.6586C50.3617 72.6586 51.3511 71.6685 51.3511 70.4467Z" fill="black"/>
</g>
<defs>
<clipPath id="clip0_21058_799">
<rect width="124" height="151" fill="white"/>
</clipPath>
</defs>
</svg>
