<svg width="148" height="151" viewBox="0 0 148 151" fill="none" xmlns="http://www.w3.org/2000/svg">
<g clip-path="url(#clip0_21058_798)">
<path d="M138.335 57.2291H7.94872C2.61897 57.2291 0.592959 50.2493 5.08864 47.3821L19.043 38.4868L21.1725 37.1288L70.2819 5.82053C72.0269 4.70566 74.2541 4.70566 75.9991 5.82053L98.9004 20.4206L135.614 43.8269L141.192 47.3821C145.691 50.2493 143.665 57.2291 138.335 57.2291Z" fill="#F9F3F1"/>
<path d="M35.6584 67.3372H112.262V134.644H35.6584V67.3372Z" fill="#CDBFBA"/>
<path d="M55.3553 134.051V101.393C55.3553 96.6649 58.295 92.8364 61.9179 92.8364H84.548C88.1711 92.8364 91.1105 96.6646 91.1105 101.393V134.051H55.3553Z" fill="#F9F3F1"/>
<path d="M70.7903 92.8367C67.1671 92.8367 64.2272 96.6646 64.2272 101.394V134.051H55.3542V101.394C55.3542 96.6646 58.2941 92.8367 61.9173 92.8367H70.7903Z" fill="#E1D3CE"/>
<path d="M136.729 57.1475V65.7592C136.729 66.7884 135.894 67.6246 134.868 67.6246H127.385H108.619H40.9999H22.2346H12.4562C11.4266 67.6246 10.5955 66.7881 10.5955 65.7592V57.1475H136.729Z" fill="#F9F3F1"/>
<path d="M137.243 148.461H11.1471C8.51273 148.461 6.37698 146.32 6.37698 143.679V138.24C6.37698 135.599 8.51273 133.458 11.1471 133.458H137.243C139.877 133.458 142.013 135.599 142.013 138.24V143.679C142.013 146.32 139.877 148.461 137.243 148.461Z" fill="#F9F3F1"/>
<path d="M74.1218 48.6842C81.6434 48.6842 87.7408 42.5715 87.7408 35.0312C87.7408 27.4908 81.6434 21.3782 74.1218 21.3782C66.6003 21.3782 60.5029 27.4908 60.5029 35.0312C60.5029 42.5715 66.6003 48.6842 74.1218 48.6842Z" fill="#FAF8F8"/>
<path d="M17.3118 67.6248H36.0783V125.156H17.3118V67.6248Z" fill="#F9F3F1"/>
<path d="M111.786 67.6248H130.553V124.86H111.786V67.6248Z" fill="#F9F3F1"/>
<path d="M12.5884 130.099V128.219C12.5884 126.364 14.0888 124.86 15.9395 124.86H36.1523C38.0029 124.86 39.5033 126.364 39.5033 128.219V130.099C39.5033 131.954 38.0029 133.458 36.1523 133.458H15.9395C14.0885 133.458 12.5884 131.954 12.5884 130.099V130.099Z" fill="#F9F3F1"/>
<path d="M107.234 130.099V128.219C107.234 126.364 108.735 124.86 110.585 124.86H130.798C132.649 124.86 134.149 126.364 134.149 128.219V130.099C134.149 131.954 132.649 133.458 130.798 133.458H110.585C108.734 133.458 107.234 131.954 107.234 130.099Z" fill="#F9F3F1"/>
<path d="M124.576 44.4994C136.07 44.4994 145.388 35.1063 145.388 23.5193C145.388 11.9324 136.07 2.53931 124.576 2.53931C113.081 2.53931 103.763 11.9324 103.763 23.5193C103.763 35.1063 113.081 44.4994 124.576 44.4994Z" fill="#FFE177"/>
<path d="M124.673 36.0477C131.508 36.0477 137.048 30.4624 137.048 23.5724C137.048 16.6825 131.508 11.0972 124.673 11.0972C117.838 11.0972 112.297 16.6825 112.297 23.5724C112.297 30.4624 117.838 36.0477 124.673 36.0477Z" fill="#FFC344"/>
<path d="M20.0187 148.462H11.1457C8.51332 148.462 6.37787 146.321 6.37787 143.679V138.241C6.37787 135.599 8.51332 133.458 11.1457 133.458H20.0187C17.3864 133.458 15.2509 135.599 15.2509 138.241V143.679C15.2509 146.321 17.3864 148.462 20.0187 148.462Z" fill="#E1D3CE"/>
<path d="M24.8131 133.458H15.94C14.0885 133.458 12.589 131.955 12.589 130.099V128.219C12.589 126.363 14.0885 124.86 15.94 124.86H24.8131C22.9616 124.86 21.462 126.363 21.462 128.219V130.099C21.462 131.955 22.9619 133.458 24.8131 133.458Z" fill="#E1D3CE"/>
<path d="M17.3124 67.6248H26.1855V125.156H17.3124V67.6248Z" fill="#E1D3CE"/>
<path d="M21.3293 67.6246H12.4562C11.4269 67.6246 10.5958 66.7884 10.5958 65.7595V57.1489H19.4689V65.7595C19.4686 66.7884 20.3 67.6246 21.3293 67.6246Z" fill="#E1D3CE"/>
<path d="M78.5572 47.9423C77.1671 48.4227 75.6734 48.6836 74.1207 48.6836C66.5993 48.6836 60.5035 42.5726 60.5035 35.0324C60.5035 27.4922 66.5993 21.3782 74.1207 21.3782C75.6734 21.3782 77.1671 21.6391 78.5572 22.1194C73.2156 23.9637 69.3765 29.0488 69.3765 35.0324C69.3765 41.0159 73.2156 46.0981 78.5572 47.9423Z" fill="#F3EAE6"/>
<path d="M16.8218 57.2292H7.94872C2.61897 57.2292 0.592959 50.2494 5.08864 47.3821L14.849 41.1614L13.9617 42.0331C9.46571 46.457 11.492 57.2292 16.8218 57.2292Z" fill="#E1D3CE"/>
<path d="M128.548 44.1172C127.258 44.3695 125.923 44.4997 124.559 44.4997C113.064 44.4917 103.755 35.0903 103.763 23.5034C103.771 11.9164 113.098 2.53106 124.593 2.53907C125.944 2.53907 127.266 2.6719 128.546 2.92423C118.961 4.79401 111.718 13.2949 111.71 23.5037C111.703 33.7252 118.948 42.2474 128.548 44.1172V44.1172Z" fill="#FFD064"/>
<path d="M111.787 67.6248H120.66V124.86H111.787V67.6248Z" fill="#E1D3CE"/>
<path d="M119.459 133.458H110.586C108.735 133.458 107.235 131.955 107.235 130.099V128.219C107.235 126.363 108.735 124.86 110.586 124.86H119.459C117.608 124.86 116.108 126.363 116.108 128.219V130.099C116.108 131.955 117.608 133.458 119.459 133.458Z" fill="#E1D3CE"/>
<path d="M142.437 45.6869L138.125 42.9379C144.099 38.6338 148 31.6134 148 23.6928C148 10.6286 137.398 0 124.366 0C112.812 0 103.175 8.35649 101.136 19.3558L77.0251 3.9827C74.5661 2.41565 71.3868 2.41565 68.9278 3.98299L3.51541 45.6869C0.612446 47.5374 -0.642499 50.8725 0.318748 54.1839C1.27615 57.4825 4.10222 59.6168 7.52426 59.6328V66.0448C7.52426 68.3027 9.35654 70.1396 11.6088 70.1396H14.2589V122.122C11.796 122.469 9.89336 124.587 9.89336 127.147V131.574C6.47724 132.031 3.83307 134.969 3.83307 138.517V143.994C3.83307 147.857 6.96851 151 10.8221 151H113.785C115.01 151 116.003 150.004 116.003 148.776C116.003 147.548 115.01 146.552 113.785 146.552H10.8221C9.41451 146.552 8.26959 145.405 8.26959 143.994V138.517C8.26959 137.106 9.41451 135.958 10.8221 135.958H137.275C138.682 135.958 139.827 137.106 139.827 138.517V143.994C139.827 145.405 138.682 146.552 137.275 146.552H123.841C122.616 146.552 121.623 147.548 121.623 148.776C121.623 150.004 122.616 151 123.841 151H137.275C141.128 151 144.264 147.857 144.264 143.994V138.517C144.264 134.654 141.128 131.511 137.275 131.511H136.522V127.147C136.522 124.524 134.526 122.359 131.975 122.094V70.1396H134.344C136.596 70.1396 138.429 68.3027 138.429 66.0448V59.6328C141.851 59.6168 144.677 57.4825 145.634 54.1839C146.595 50.8725 145.34 47.5374 142.437 45.6869V45.6869ZM124.366 4.44762C134.951 4.44762 143.563 13.081 143.563 23.6928C143.563 34.3048 134.951 42.9379 124.366 42.9379C113.781 42.9379 105.169 34.3045 105.169 23.6928C105.169 13.081 113.781 4.44762 124.366 4.44762ZM32.8926 70.1396V122.066H18.6957V70.1396H32.8926ZM37.3622 131.511H14.3302V127.147C14.3302 126.798 14.6171 126.514 14.9696 126.514H36.7198C37.0739 126.514 37.3622 126.798 37.3622 127.147V131.511ZM88.9147 131.511H57.5017V101.373C57.5017 97.9823 59.499 95.118 61.8631 95.118H84.553C86.9173 95.118 88.9147 97.9826 88.9147 101.373V131.511ZM132.086 131.511H109.054V127.147C109.054 126.798 109.341 126.514 109.693 126.514H131.447C131.799 126.514 132.086 126.798 132.086 127.147V131.511ZM127.538 122.066H113.342V70.1396H127.538V122.066ZM141.374 52.9415C141.059 54.027 140.11 55.187 138.39 55.187H55.0752C53.8499 55.187 52.857 56.1826 52.857 57.4108C52.857 58.6389 53.8499 59.6346 55.0752 59.6346H133.992V65.6923H98.9968C97.7714 65.6923 96.7785 66.6879 96.7785 67.9161C96.7785 69.1442 97.7714 70.1399 98.9968 70.1399H108.905V122.134C106.48 122.515 104.618 124.615 104.618 127.147V131.511H93.3512V101.373C93.3512 95.4715 89.4042 90.6704 84.553 90.6704H61.8631C57.0119 90.6704 53.0652 95.4715 53.0652 101.373V131.511H41.7988V127.147C41.7988 124.552 39.8429 122.409 37.3291 122.106V70.1396H88.9407C90.1661 70.1396 91.1589 69.1439 91.1589 67.9158C91.1589 66.6876 90.1661 65.692 88.9407 65.692H11.9611V59.6343H45.0191C46.2445 59.6343 47.2374 58.6386 47.2374 57.4105C47.2374 56.1823 46.2445 55.1867 45.0191 55.1867H7.563C5.8434 55.1867 4.89399 54.0267 4.5787 52.9412C4.26371 51.8554 4.44413 50.3655 5.89605 49.4398L71.3079 7.73649C72.3218 7.0904 73.6317 7.09069 74.6444 7.73619L100.75 24.3804C101.115 37.127 111.565 47.3855 124.366 47.3855C127.704 47.3855 130.88 46.6843 133.762 45.4274L140.056 49.4404C141.509 50.3655 141.689 51.8557 141.374 52.9415V52.9415Z" fill="black"/>
<path d="M74.0484 19.166C65.296 19.166 58.1754 26.3044 58.1754 35.0787C58.1754 43.853 65.296 50.9914 74.0484 50.9914C82.8011 50.9914 89.9217 43.853 89.9217 35.0787C89.9217 26.3044 82.8011 19.166 74.0484 19.166V19.166ZM74.0484 46.5441C67.7423 46.5441 62.6119 41.4009 62.6119 35.079C62.6119 28.7572 67.7423 23.6139 74.0484 23.6139C80.3545 23.6139 85.4852 28.7572 85.4852 35.079C85.4852 41.4009 80.3545 46.5441 74.0484 46.5441V46.5441Z" fill="black"/>
<path d="M124.366 38.2802C132.39 38.2802 138.917 31.7363 138.917 23.6923C138.917 15.6487 132.39 9.10474 124.366 9.10474C116.342 9.10474 109.815 15.6487 109.815 23.6923C109.815 31.7363 116.342 38.2802 124.366 38.2802ZM124.366 13.5527C129.943 13.5527 134.481 18.1014 134.481 23.6926C134.481 29.2839 129.943 33.8329 124.366 33.8329C118.789 33.8329 114.251 29.2842 114.251 23.6926C114.251 18.1014 118.789 13.5527 124.366 13.5527V13.5527Z" fill="black"/>
</g>
<defs>
<clipPath id="clip0_21058_798">
<rect width="148" height="151" fill="white"/>
</clipPath>
</defs>
</svg>
